# xmcd CD database file
#
# Track frame offsets:
#	150
#	20438
#	38580
#	52518
#	67735
#	97917
#	121648
#	142641
#	165398
#	200654
#	215818
#	231084
#	253649
#	269509
#
# Disc length: 3841 seconds
#
# Revision: 2
# Processed by: cddbd v1.5.2PL0 Copyright (c) Steve Scherf et al.
# Submitted via: CDex 1.74
#
DISCID=ac0eff0e
DTITLE=Greatest Disco Hits - Greatest Disco Hits CD 1
DYEAR=1900
DGENRE=Pop
TTITLE0=Haddaway - What Is Love (7- Mix)
TTITLE1=Santa Esmeralda - Don't Let Me Be Misunderstood
TTITLE2=KC and the Sunshine Band - That's The Way I Like It
TTITLE3=The Temptations - Papa Was A Rollin' Stones
TTITLE4=Joe Tex - Ain't Gonna Bump No More (With No Big Fat Woman)
TTITLE5=Heatwave - Boogie nights
TTITLE6=Hamilton Bohannon - Disco stomp
TTITLE7=Anita Ward - Ring my bell
TTITLE8=Evelyn Thomas - High energy
TTITLE9=The Real Thing - You to me are everything
TTITLE10=Hot Chocolate - Emma
TTITLE11=Kool and the Gang - Celebration
TTITLE12=Los Bravos Featuring Mike Kennedy - Black is black
TTITLE13=Gloria Gaynor - Never can say goodbye
EXTD=
EXTT0=
EXTT1=
EXTT2=
EXTT3=
EXTT4=
EXTT5=
EXTT6=
EXTT7=
EXTT8=
EXTT9=
EXTT10=
EXTT11=
EXTT12=
EXTT13=
PLAYORDER=
